# xmcd
#
# Track frame offsets:
#	150
#	20436
#	37525
#	58973
#
# Disc length: 1092 seconds
#
# Revision: 1
# Processed by: cddbd v1.5.1PL0 Copyright (c) Steve Scherf et al.
# Submitted via: CDex 1.50Beta5
#
DISCID=27044204
DTITLE=Max Gazz将イ - Su Un Ciliegio Esterno
DYEAR=2000
DGENRE=Rock
TTITLE0=Su Un Ciliegio Esterno
TTITLE1=Comunque Vada
TTITLE2=Terra
TTITLE3=La Tua Realt将「
EXTD=
EXTT0=
EXTT1=
EXTT2=
EXTT3=
PLAYORDER=
